<?xml version="1.0" encoding="UTF-8"?>
<svg id="Layer_1" data-name="Layer 1" xmlns="http://www.w3.org/2000/svg" xmlns:xlink="http://www.w3.org/1999/xlink" viewBox="0 0 2046.09 296.71">
  <defs>
    <style>
      .cls-1 {
        fill: #144497;
      }

      .cls-2 {
        fill: url(#linear-gradient);
      }
    </style>
    <linearGradient id="linear-gradient" x1="532.98" y1="607.06" x2="1034.16" y2="-261.02" gradientTransform="translate(0 299.34) scale(1 -1)" gradientUnits="userSpaceOnUse">
      <stop offset="0" stop-color="#1a1a1a"/>
      <stop offset=".06" stop-color="#222"/>
      <stop offset=".22" stop-color="#3a3a3a"/>
      <stop offset=".37" stop-color="#484848"/>
      <stop offset=".51" stop-color="#4d4d4d"/>
      <stop offset=".64" stop-color="#454545"/>
      <stop offset=".83" stop-color="#303030"/>
      <stop offset="1" stop-color="#1a1a1a"/>
    </linearGradient>
  </defs>
  <path class="cls-2" d="M440.22,230.78l-96.73-111.79v111.79h-67.94V.51h64.6l96.73,113.46V.51h67.94v230.27h-64.6ZM715.17,72.8c17.07,15.18,25.6,38.38,25.6,69.62v11.38h-132.54c0,12.72,2.85,22.31,8.53,28.78,5.69,6.47,14.67,9.71,26.94,9.71,11.15,0,19.35-2.34,24.6-7.03,5.24-4.69,7.87-10.93,7.87-18.74h64.6c0,21.42-8.15,38.16-24.43,50.2-16.29,12.05-40.05,18.07-71.29,18.07-32.8,0-58.24-7.64-76.31-22.93-18.07-15.28-27.11-38.43-27.11-69.45s8.81-53.33,26.44-68.95c17.62-15.62,41.95-23.43,72.96-23.43s57.07,7.59,74.14,22.76h0ZM608.57,122.34h64.93c0-9.15-2.62-16.4-7.87-21.76-5.25-5.35-12.55-8.03-21.92-8.03-20.98,0-32.69,9.93-35.14,29.79ZM934.73,68.62c17.96,12.38,26.94,31.29,26.94,56.73h-64.6c0-20.08-10.94-30.12-32.8-30.12s-32.8,12.61-32.8,37.82v19.08c0,24.99,11.38,37.49,34.14,37.49s34.14-10.26,34.14-30.79h61.92c0,25.66-8.98,44.74-26.94,57.23-17.96,12.5-41.45,18.74-70.45,18.74-31.02,0-55.34-7.81-72.96-23.43-17.63-15.62-26.44-38.6-26.44-68.95s8.81-53.33,26.44-68.95c17.62-15.62,41.95-23.43,72.96-23.43,29,0,52.49,6.19,70.45,18.58h0ZM1140.23,63.93c16.4,9.26,24.6,23.6,24.6,43.01h-61.92c0-6.47-2.9-11.04-8.7-13.72-4.02-2.23-9.04-3.35-15.06-3.35-16.07,0-24.1,3.8-24.1,11.38,0,4.24,2.79,7.25,8.37,9.04s14.73,3.68,27.45,5.69c15.62,2.23,28.67,4.85,39.16,7.87,10.49,3.01,19.63,8.37,27.44,16.07,7.81,7.7,11.71,18.47,11.71,32.3,0,22.54-8.42,38.6-25.27,48.2s-38.88,14.39-66.1,14.39c-15.62,0-30.35-2.17-44.18-6.53-13.84-4.35-25.1-11.1-33.8-20.25s-13.05-20.75-13.05-34.81h61.92v1.34c.22,7.59,3.4,12.89,9.54,15.9,6.13,3.01,12.66,4.52,19.58,4.52,18.52,0,27.78-4.35,27.78-13.05,0-4.46-2.9-7.7-8.7-9.71-5.8-2.01-15.29-4.13-28.45-6.36-15.85-2.68-28.84-5.58-38.99-8.7-10.16-3.12-19.03-8.42-26.61-15.9-7.59-7.47-11.38-17.91-11.38-31.29,0-21.64,8.2-37.04,24.6-46.19,16.4-9.15,37.76-13.72,64.09-13.72,23.65,0,43.68,4.63,60.08,13.89v-.02ZM1328.83,230.78l-4.35-26.78c-6.92,9.6-16.01,17.13-27.28,22.59-11.27,5.46-23.15,8.2-35.64,8.2-20.53,0-35.93-5.69-46.19-17.07-10.27-11.38-15.4-27.78-15.4-49.2V54.06h66.6v106.43c0,7.59,1.95,13.67,5.86,18.24,3.9,4.58,9.42,6.86,16.57,6.86,8.25,0,14.95-2.68,20.08-8.03s7.7-11.93,7.7-19.75V54.06h66.6v176.72h-54.55,0ZM1595.57,73.47c12.94,15.62,19.41,38.71,19.41,69.28s-6.47,53.27-19.41,68.78c-12.94,15.51-31.35,23.26-55.22,23.26-20.53,0-37.04-6.69-49.53-20.08v82h-66.6V54.06h54.22l5.69,25.1c12.94-19.41,31.68-29.12,56.23-29.12s42.28,7.81,55.22,23.43h0ZM1497.51,109.62c-4.91,6.92-7.36,15.96-7.36,27.11v11.04c0,11.16,2.45,20.25,7.36,27.28s12.27,10.54,22.09,10.54c19.19,0,28.78-11.49,28.78-34.47v-17.74c0-22.76-9.6-34.14-28.78-34.14-9.82,0-17.18,3.46-22.09,10.38h0ZM0,230.27l115.82-115.14L0,0v230.27ZM138,0v230.27l115.82-115.14L138,0Z"/>
  <g>
    <path class="cls-1" d="M1706.03,227.84V2.43h72.4v225.4h-72.4Z"/>
    <path class="cls-1" d="M2046.09,115.14c0,75.14-39.43,112.7-118.27,112.7h-97.63V2.43h97.63c78.84,0,118.27,37.57,118.27,112.7ZM1902.6,173.78h23.92c30.36,0,45.54-16.27,45.54-48.82v-19.66c0-32.54-15.18-48.82-45.54-48.82h-23.92v117.29Z"/>
  </g>
</svg>